<svg width="16" height="16" viewBox="0 0 16 16" fill="none" xmlns="http://www.w3.org/2000/svg">
<g clip-path="url(#clip0_2150_16323)">
<path d="M1 1H4.33333V2.33333H2.33333V4.33333H1V1ZM11.6667 1H15V4.33333H13.6667V2.33333H11.6667V1ZM2.33333 11.6667V13.6667H4.33333V15H1V11.6667H2.33333ZM15 11.6667V15H11.6667V13.6667H13.6667V11.6667H15Z" fill="#BCC4D6" style="fill:#BCC4D6;fill:color(display-p3 0.7392 0.7675 0.8400);fill-opacity:1;"/>
<path d="M7.99028 12.2784C5.56628 12.2784 3.63428 10.3584 3.63428 7.91035C3.63428 5.45035 5.56628 3.54235 7.99028 3.54235C10.4143 3.54235 12.3583 5.45035 12.3583 7.91035C12.3583 10.3584 10.4143 12.2784 7.99028 12.2784ZM7.99028 10.6584C9.51428 10.6584 10.7023 9.51835 10.7023 7.91035C10.7023 6.29035 9.51428 5.15035 7.99028 5.15035C6.46628 5.15035 5.27828 6.29035 5.27828 7.91035C5.27828 9.51835 6.46628 10.6584 7.99028 10.6584Z" fill="#8D98B2" style="fill:#8D98B2;fill:color(display-p3 0.5529 0.5961 0.6980);fill-opacity:1;"/>
</g>
<defs>
<clipPath id="clip0_2150_16323">
<rect width="16" height="16" fill="white" style="fill:white;fill-opacity:1;"/>
</clipPath>
</defs>
</svg>
